<svg 
 xmlns="http://www.w3.org/2000/svg"
 xmlns:xlink="http://www.w3.org/1999/xlink"
 width="13.736in" height="9.431in">
<path fill-rule="evenodd"  fill="rgb(255, 255, 255)"
 d="M985.206,509.226 L985.365,509.285 L984.467,511.521 C983.870,513.209 983.232,514.572 982.545,515.596 C969.371,540.733 934.726,561.883 889.798,572.197 C853.829,580.924 796.391,586.651 719.105,589.215 C696.805,615.188 664.207,638.848 629.517,654.212 C605.263,664.955 582.762,670.550 564.813,670.550 C557.378,670.550 550.727,669.591 545.051,667.639 C522.759,660.108 517.387,640.017 519.218,628.349 C521.918,609.257 543.533,588.062 584.600,586.718 C603.773,586.088 622.715,585.647 648.927,585.034 C664.190,584.677 681.893,584.264 703.498,583.724 C731.332,554.737 764.226,487.467 755.071,468.898 C753.310,465.329 749.937,463.892 744.796,464.503 C738.958,464.940 730.845,471.365 724.328,476.526 C718.154,481.413 714.795,483.925 712.240,483.784 C710.579,483.837 709.144,482.851 708.366,481.134 C707.268,478.711 707.836,475.493 709.721,473.483 L710.722,472.385 C716.016,466.573 721.302,460.749 726.580,454.917 C733.816,446.919 741.586,438.312 749.361,429.574 C752.364,426.195 755.364,422.809 758.323,419.388 C758.853,418.776 759.380,418.164 759.904,417.548 C755.362,419.145 751.178,421.523 747.596,423.711 C740.745,427.896 733.735,432.870 725.532,439.365 L724.579,440.129 C722.323,441.949 720.122,443.835 717.923,445.721 L715.584,447.721 C712.242,450.566 709.216,452.995 706.328,455.147 C702.858,457.733 699.921,459.700 697.085,461.336 C693.926,463.160 691.051,464.469 688.300,465.335 C685.382,466.252 682.518,466.663 679.800,466.542 C674.412,466.313 670.587,464.184 668.431,460.213 C664.386,452.766 667.449,440.455 671.272,430.736 C661.368,440.683 648.834,450.975 639.380,450.975 C639.242,450.975 639.103,450.973 638.966,450.969 C636.727,450.896 634.768,450.244 633.116,449.026 C623.020,470.378 603.720,485.039 582.213,487.517 C562.202,490.049 545.337,485.994 532.111,475.485 C514.113,461.185 503.072,435.207 499.296,398.275 C494.208,352.088 468.136,323.709 446.410,307.764 C399.967,382.683 347.723,457.569 267.028,483.336 C221.579,497.650 174.243,496.613 130.136,480.348 C93.869,466.975 61.427,443.742 41.126,416.606 C-4.212,355.888 -7.496,265.436 9.361,202.728 C22.799,154.565 54.966,111.796 99.942,82.284 C143.287,53.556 195.237,39.998 242.481,45.088 C269.613,47.755 294.455,55.126 316.321,66.994 C323.435,61.778 332.741,55.185 343.202,49.007 C410.064,11.776 488.082,-2.903 557.275,8.695 C585.425,13.307 610.305,22.271 629.334,34.650 C676.274,3.792 731.640,-7.147 781.460,4.626 C815.066,12.914 844.384,37.035 854.434,64.653 C860.607,82.209 859.596,100.412 851.595,115.931 C844.981,129.626 832.479,140.489 816.409,146.478 C813.743,147.734 805.977,148.875 802.503,146.138 C800.917,144.890 800.314,143.030 800.805,140.903 C801.355,139.225 802.554,138.104 804.237,137.556 C806.943,136.675 810.531,137.344 813.158,139.221 C813.878,139.698 814.379,140.076 814.762,140.395 C828.018,136.189 839.829,126.064 846.519,113.109 C851.457,103.243 855.697,87.217 847.797,67.036 C838.527,44.534 814.956,28.565 777.758,19.606 C735.196,9.228 685.261,18.385 643.570,44.079 C669.275,62.567 687.804,85.687 698.670,112.835 C716.324,157.872 707.859,203.895 694.052,231.953 C673.169,274.160 629.444,302.687 570.929,312.282 C557.772,314.747 543.197,315.950 526.418,315.950 C507.412,315.950 489.225,314.183 473.307,310.813 C497.076,334.508 510.881,363.290 514.377,396.480 C520.075,451.688 541.536,479.709 576.377,477.448 C600.440,475.699 619.882,462.947 628.366,443.339 L629.081,443.648 C625.924,436.495 626.711,426.471 631.292,415.935 C638.383,399.620 652.045,386.439 666.098,382.355 C673.750,380.100 681.180,381.005 687.004,384.900 C690.484,387.229 693.125,390.449 694.542,393.965 C700.213,387.311 705.452,382.885 708.914,381.896 C713.200,380.971 717.459,382.969 719.168,386.611 C720.422,389.279 720.310,393.269 716.242,396.463 C709.097,402.413 681.604,439.453 680.957,453.664 C680.884,455.278 681.173,456.424 681.817,457.068 C685.852,461.097 695.819,454.662 699.571,452.239 C704.441,449.101 708.668,445.437 713.143,441.558 C714.223,440.622 715.303,439.685 716.395,438.756 C722.413,433.628 730.454,426.995 739.294,421.172 C743.506,418.398 747.700,415.942 751.761,413.873 C758.323,410.526 763.968,409.230 770.521,409.515 C774.202,409.676 778.055,410.169 779.316,412.621 C779.671,413.309 780.091,414.730 778.929,416.510 L778.762,416.733 L743.298,457.884 C743.867,457.745 744.345,457.649 744.680,457.617 C757.750,455.779 763.750,461.332 766.497,466.317 C778.711,488.493 754.070,545.985 723.998,583.054 C774.907,581.268 843.161,576.907 888.800,566.315 C933.856,555.832 967.339,534.908 978.370,510.342 C983.774,496.330 985.981,439.816 971.335,414.019 C966.744,405.929 960.942,401.828 954.091,401.828 C954.042,401.828 953.991,401.828 953.942,401.829 C929.623,402.166 901.014,428.041 883.919,443.503 C879.636,447.377 875.666,450.830 873.300,452.743 C863.364,460.613 852.796,467.804 842.637,467.306 C837.265,467.078 833.440,464.948 831.284,460.978 C827.241,453.531 830.302,441.222 834.123,431.505 C823.875,441.803 810.809,452.452 801.304,451.726 C797.854,451.472 795.118,449.808 793.171,446.782 C788.927,439.957 788.925,430.145 793.147,419.127 C798.643,404.788 811.844,388.093 828.951,383.119 C836.603,380.866 844.033,381.769 849.857,385.665 C853.338,387.994 855.979,391.214 857.395,394.730 C863.066,388.075 868.307,383.649 871.770,382.661 C876.057,381.734 880.316,383.733 882.024,387.376 C883.275,390.044 883.163,394.034 879.096,397.229 C871.951,403.180 844.457,440.222 843.813,454.429 C843.740,456.044 844.029,457.189 844.673,457.832 C848.111,460.979 857.401,457.326 869.457,447.992 C871.213,446.450 877.414,440.949 879.717,438.865 C897.473,422.807 927.176,395.943 953.867,395.572 C953.946,395.571 954.028,395.571 954.107,395.571 C963.369,395.571 970.995,400.737 976.782,410.931 C991.519,436.889 991.002,489.136 985.206,509.226 ZM673.179,590.579 C653.859,591.078 627.400,591.763 582.083,593.247 C546.263,595.754 528.128,612.936 526.079,628.852 C523.669,642.383 532.565,655.532 547.698,660.927 C571.631,669.265 648.624,640.169 697.625,589.911 C690.177,590.139 682.465,590.339 673.179,590.579 ZM256.579,226.440 C265.028,262.434 290.366,283.580 326.101,284.473 C355.916,285.339 381.813,277.197 401.115,260.855 C403.679,248.586 404.536,236.157 403.660,223.899 C398.406,156.530 367.702,103.446 317.149,74.259 C260.875,120.475 246.140,183.874 256.579,226.440 ZM555.616,22.355 C501.073,11.625 417.539,14.418 346.656,54.439 C337.166,59.612 329.070,64.891 321.980,70.529 C373.216,100.497 404.308,154.721 409.643,223.589 C410.381,233.189 409.962,243.449 408.394,254.166 C411.867,250.494 415.289,246.306 418.616,241.654 C434.826,218.007 439.950,186.457 431.507,162.757 C427.696,161.869 423.673,159.751 422.433,156.656 C421.735,154.917 422.007,153.085 423.198,151.499 C424.180,150.270 425.547,149.684 427.127,149.762 C429.767,149.916 432.864,152.136 434.834,155.287 L436.296,158.188 C446.663,183.602 441.328,219.227 423.392,244.967 C418.401,252.221 412.942,258.598 406.723,264.433 C399.965,293.785 384.943,320.743 364.378,340.404 C341.268,363.038 312.730,374.239 283.984,371.924 C284.084,371.834 273.891,371.566 271.452,367.012 C270.963,366.097 270.375,364.212 271.943,361.861 C272.895,360.432 274.406,359.630 276.193,359.601 C278.982,359.499 282.082,361.358 284.029,364.081 C284.431,364.681 284.724,365.155 284.974,365.560 C285.065,365.707 285.164,365.868 285.259,366.018 C311.888,367.912 338.413,357.283 360.109,336.041 C378.091,318.886 391.616,295.779 398.599,270.455 C379.040,284.409 353.895,291.318 325.531,290.463 C288.014,289.525 260.037,266.132 250.704,227.885 C239.645,184.099 254.230,119.026 311.360,71.223 C290.020,60.333 266.567,53.553 241.594,51.058 C234.980,50.319 228.335,49.960 221.685,49.960 C130.890,49.960 39.255,117.041 15.211,204.730 C-0.440,262.519 3.948,348.414 49.036,410.030 C79.057,451.678 165.074,496.863 248.523,473.426 C345.173,445.491 396.842,360.613 462.248,253.159 C487.233,211.675 521.459,154.849 561.627,100.537 C577.955,78.207 596.262,59.389 616.072,44.568 C598.618,33.820 580.848,27.317 555.616,22.355 ZM680.285,225.565 C692.475,199.845 699.946,158.187 684.318,118.469 C674.318,92.833 656.021,70.949 629.923,53.397 C610.374,67.279 591.434,86.271 573.623,109.860 C536.489,160.226 506.661,209.309 477.816,256.775 L475.376,260.788 C468.477,272.425 461.470,283.824 454.545,294.681 C455.824,295.646 457.107,296.664 458.442,297.723 C459.802,298.801 461.205,299.915 462.683,301.030 C529.282,318.588 640.560,306.802 680.285,225.565 ZM631.368,443.602 L630.265,444.159 L632.197,444.994 C632.106,445.204 632.013,445.414 631.920,445.623 L632.212,445.882 L632.590,445.593 L631.368,443.602 ZM681.373,411.792 C683.906,407.201 686.782,403.385 689.325,400.010 L689.624,399.610 C689.510,397.186 688.768,395.149 687.366,393.397 C684.974,390.329 676.503,390.282 669.134,394.783 C651.803,405.035 640.474,426.725 639.971,437.768 C639.849,440.456 640.381,442.376 641.469,443.182 C644.479,445.190 658.244,436.239 681.373,411.792 ZM844.227,412.556 C846.760,407.966 849.635,404.150 852.178,400.775 L852.478,400.376 C852.364,397.951 851.622,395.913 850.220,394.162 C847.829,391.090 839.358,391.047 831.990,395.548 C814.658,405.799 803.330,427.490 802.826,438.533 C802.704,441.221 803.236,443.141 804.324,443.947 C807.359,445.969 821.118,436.984 844.227,412.556 ZM102.829,616.956 C102.829,631.243 92.822,641.532 78.382,641.532 C63.942,641.532 53.935,631.243 53.935,616.956 L53.935,613.384 L68.517,611.811 L68.517,615.526 C68.517,622.813 72.235,627.243 78.239,627.243 C84.243,627.243 87.960,623.528 87.960,617.669 C87.960,611.384 85.387,606.811 74.093,596.095 C59.082,581.948 54.792,574.233 54.792,563.231 C54.792,548.372 63.370,538.655 77.810,538.655 C92.249,538.655 100.827,548.372 100.827,563.374 L100.827,565.946 L86.245,567.518 L86.245,564.659 C86.245,556.944 83.243,552.944 77.953,552.944 C72.664,552.944 69.661,556.229 69.661,562.517 C69.661,568.804 72.806,573.376 83.528,584.093 C98.111,598.667 102.829,605.954 102.829,616.956 ZM162.729,640.102 L162.729,554.372 L146.145,554.372 L146.145,540.085 L194.466,540.085 L194.466,554.372 L177.883,554.372 L177.883,640.102 L162.729,640.102 ZM288.247,540.085 L288.247,618.098 C288.247,632.100 278.812,641.532 264.944,641.532 C251.077,641.532 241.355,632.100 241.355,618.098 L241.355,540.085 L256.510,540.085 L256.510,618.098 C256.510,623.956 260.084,627.243 264.944,627.243 C269.805,627.243 273.380,623.956 273.380,618.098 L273.380,540.085 L288.247,540.085 ZM339.997,640.102 L339.997,540.085 L382.315,540.085 L382.315,554.372 L355.151,554.372 L355.151,583.663 L376.596,583.663 L376.596,597.952 L355.151,597.952 L355.151,640.102 L339.997,640.102 ZM429.775,640.102 L429.775,540.085 L472.093,540.085 L472.093,554.372 L444.929,554.372 L444.929,583.663 L466.374,583.663 L466.374,597.952 L444.929,597.952 L444.929,640.102 L429.775,640.102 ZM31.753,659.361 C35.847,659.361 39.367,661.901 40.838,665.479 L474.271,665.479 C475.743,661.901 479.262,659.361 483.356,659.361 C488.760,659.361 493.181,663.780 493.181,669.180 C493.181,674.581 488.760,679.000 483.356,679.000 C479.638,679.000 476.425,676.885 474.757,673.821 L40.352,673.821 C38.684,676.885 35.471,679.000 31.753,679.000 C26.350,679.000 21.928,674.581 21.928,669.180 C21.928,663.780 26.350,659.361 31.753,659.361 Z"/>
</svg>